<svg xmlns="http://www.w3.org/2000/svg" width="302" height="82" viewBox="0 0 302 82" role="img" aria-label="TAPESTRY mark">
  <title>TAPESTRY mark</title>
  <path d="M59 66 L151 52 L243 66" fill="none" stroke="#1A1A18" stroke-width="6" stroke-linecap="round" stroke-linejoin="round" stroke-dasharray="10 8"/>
  <path d="M59 16 L243 16" fill="none" stroke="#1A1A18" stroke-width="6" stroke-linecap="round"/>
  <rect x="29" y="7" width="60" height="18" rx="4" fill="#1A1A18"/>
  <rect x="213" y="7" width="60" height="18" rx="4" fill="#1A1A18"/>
  <rect x="29" y="57" width="60" height="18" rx="4" fill="#1A1A18"/>
  <rect x="213" y="57" width="60" height="18" rx="4" fill="#1A1A18"/>
  <rect x="129" y="7" width="44" height="18" rx="4" fill="#FFFFFF" stroke="#1A1A18" stroke-width="2.5"/>
  <circle cx="3" cy="16" r="3" fill="#1A1A18"/>
  <circle cx="3" cy="66" r="3" fill="#1A1A18"/>
  <circle cx="13" cy="16" r="3" fill="#1A1A18"/>
  <circle cx="13" cy="66" r="3" fill="#1A1A18"/>
  <circle cx="23" cy="16" r="3" fill="#1A1A18"/>
  <circle cx="23" cy="66" r="3" fill="#1A1A18"/>
  <circle cx="279" cy="16" r="3" fill="#1A1A18"/>
  <circle cx="279" cy="66" r="3" fill="#1A1A18"/>
  <circle cx="289" cy="16" r="3" fill="#1A1A18"/>
  <circle cx="289" cy="66" r="3" fill="#1A1A18"/>
  <circle cx="299" cy="16" r="3" fill="#1A1A18"/>
  <circle cx="299" cy="66" r="3" fill="#1A1A18"/>
</svg>
